<svg width="19" height="19" viewBox="0 0 19 19" fill="none" xmlns="http://www.w3.org/2000/svg">
<path d="M1.41999 18.579C1.28125 18.5788 1.14408 18.5497 1.0172 18.4935C0.890315 18.4374 0.7765 18.3555 0.68299 18.253C0.587788 18.1514 0.515143 18.0308 0.469818 17.8991C0.424493 17.7674 0.407513 17.6277 0.41999 17.489L0.66499 14.795L11.983 3.481L15.52 7.017L4.20499 18.33L1.51099 18.575C1.48074 18.5778 1.45037 18.5791 1.41999 18.579ZM16.226 6.31L12.69 2.774L14.811 0.652997C14.9039 0.560021 15.0142 0.486262 15.1355 0.435938C15.2569 0.385613 15.3871 0.359711 15.5185 0.359711C15.6499 0.359711 15.78 0.385613 15.9014 0.435938C16.0228 0.486262 16.1331 0.560021 16.226 0.652997L18.347 2.774C18.44 2.86687 18.5137 2.97716 18.5641 3.09856C18.6144 3.21996 18.6403 3.35008 18.6403 3.4815C18.6403 3.61291 18.6144 3.74304 18.5641 3.86444C18.5137 3.98584 18.44 4.09612 18.347 4.189L16.227 6.309L16.226 6.31Z" fill="#333333" fill-opacity="0.5"/>
</svg>
