<svg width="22" height="23" viewBox="0 0 22 23" fill="none" xmlns="http://www.w3.org/2000/svg">
<path d="M1.59998 17.6091V11.3255C1.59998 8.82569 2.6114 6.42829 4.41175 4.66068C6.2121 2.89306 8.6539 1.90002 11.2 1.90002C13.7461 1.90002 16.1879 2.89306 17.9882 4.66068C19.7885 6.42829 20.8 8.82569 20.8 11.3255V17.6091" stroke="#333333" stroke-width="2" stroke-linecap="round" stroke-linejoin="round"/>
<path d="M20.8 18.8558C20.8 19.451 20.5752 20.0218 20.1751 20.4427C19.7751 20.8635 19.2324 21.1 18.6666 21.1H17.6C17.0342 21.1 16.4916 20.8635 16.0915 20.4427C15.6914 20.0218 15.4666 19.451 15.4666 18.8558V15.4896C15.4666 14.8944 15.6914 14.3236 16.0915 13.9027C16.4916 13.4819 17.0342 13.2454 17.6 13.2454H20.8V18.8558ZM1.59998 18.8558C1.59998 19.451 1.82474 20.0218 2.22481 20.4427C2.62489 20.8635 3.16751 21.1 3.73331 21.1H4.79998C5.36577 21.1 5.90839 20.8635 6.30847 20.4427C6.70855 20.0218 6.93331 19.451 6.93331 18.8558V15.4896C6.93331 14.8944 6.70855 14.3236 6.30847 13.9027C5.90839 13.4819 5.36577 13.2454 4.79998 13.2454H1.59998V18.8558Z" stroke="#333333" stroke-width="2" stroke-linecap="round" stroke-linejoin="round"/>
</svg>
