<svg width="60" height="60" viewBox="0 0 60 60" fill="none" xmlns="http://www.w3.org/2000/svg">
<circle cx="30" cy="30" r="30" fill="#D9D9D9"/>
<path d="M20 22V19H22V22H25V24H22V27H20V24H17V22H20ZM23 28V25H26V22H33L34.83 24H38C39.1 24 40 24.9 40 26V38C40 39.1 39.1 40 38 40H22C20.9 40 20 39.1 20 38V28H23ZM30 37C32.76 37 35 34.76 35 32C35 29.24 32.76 27 30 27C27.24 27 25 29.24 25 32C25 34.76 27.24 37 30 37ZM26.8 32C26.8 33.77 28.23 35.2 30 35.2C31.77 35.2 33.2 33.77 33.2 32C33.2 30.23 31.77 28.8 30 28.8C28.23 28.8 26.8 30.23 26.8 32Z" fill="white"/>
</svg>
