<svg width="16" height="20" viewBox="0 0 16 20" fill="none" xmlns="http://www.w3.org/2000/svg">
<path fill-rule="evenodd" clip-rule="evenodd" d="M1 17.5H15C15.2652 17.5 15.5196 17.6054 15.7071 17.7929C15.8946 17.9804 16 18.2348 16 18.5C16 18.7652 15.8946 19.0196 15.7071 19.2071C15.5196 19.3946 15.2652 19.5 15 19.5H1C0.734784 19.5 0.48043 19.3946 0.292893 19.2071C0.105357 19.0196 0 18.7652 0 18.5C0 18.2348 0.105357 17.9804 0.292893 17.7929C0.48043 17.6054 0.734784 17.5 1 17.5ZM9 11.675L12.243 8.433L13.657 9.847L8 15.504L2.343 9.847L3.757 8.433L7 11.675V0.5H9V11.675Z" fill="white"/>
</svg>
